<?xml version="1.0" encoding="UTF-8"?>
<!DOCTYPE svg PUBLIC "-//W3C//DTD SVG 1.1//EN" "http://www.w3.org/Graphics/SVG/1.1/DTD/svg11.dtd">
<!-- Creator: CorelDRAW 2018 (64 Bit Versão de avaliação) -->
<svg xmlns="http://www.w3.org/2000/svg" xml:space="preserve" width="210mm" height="297mm" version="1.1" style="shape-rendering:geometricPrecision; text-rendering:geometricPrecision; image-rendering:optimizeQuality; fill-rule:evenodd; clip-rule:evenodd"
viewBox="0 0 21000 29700"
 xmlns:xlink="http://www.w3.org/1999/xlink"
 xmlns:dc="http://purl.org/dc/elements/1.1/"
 xmlns:cc="http://creativecommons.org/ns#"
 xmlns:rdf="http://www.w3.org/1999/02/22-rdf-syntax-ns#"
 xmlns:svg="http://www.w3.org/2000/svg">
 <defs>
  <style type="text/css">
   <![CDATA[
    .fil2 {fill:none;fill-rule:nonzero}
    .fil3 {fill:#FEFEFE}
    .fil0 {fill:#3FB1E5;fill-rule:nonzero}
    .fil1 {fill:url(#id1);fill-rule:nonzero}
   ]]>
  </style>
    <clipPath id="id0" style="clip-rule:nonzero">
     <path d="M18872.27 11570.27l-62.58 0 0 44.1 62.58 0 0 -44.1z"/>
    </clipPath>
  <radialGradient id="id1" gradientUnits="userSpaceOnUse" gradientTransform="matrix(11.6202 -0 -0 -11.6202 -200094 145740)" cx="18840.98" cy="11548.22" r="31.29" fx="18840.98" fy="11548.22">
   <stop offset="0" style="stop-opacity:1; stop-color:#171817"/>
   <stop offset="0.0705882" style="stop-opacity:1; stop-color:#171817"/>
   <stop offset="0.909804" style="stop-opacity:1; stop-color:#171817"/>
   <stop offset="1" style="stop-opacity:1; stop-color:#171817"/>
  </radialGradient>
 </defs>
 <g id="Camada_x0020_1">
  <metadata id="CorelCorpID_0Corel-Layer"/>
  <polygon id="path24" class="fil0" points="24021.1,27554.17 -4201.12,27554.17 -4201.12,-668.05 24021.1,-668.05 "/>
  <g id="g120">
   <g>
   </g>
   <g style="clip-path:url(#id0)">
    <g id="_2675588847488">
     <polygon id="path138" class="fil1" points="18872.27,11570.27 18809.69,11570.27 18809.69,11614.37 18872.27,11614.37 "/>
    </g>
   </g>
   <polygon class="fil2" points="18872.27,11570.27 18809.69,11570.27 18809.69,11614.37 18872.27,11614.37 "/>
  </g>
  <g>
   <g id="_2675588841984">
    <g>
     <path class="fil3" d="M22474.2 20489.1c-1.91,-54.61 -3.84,-109.51 -5.74,-164.6 -1.98,-55.09 -4.02,-110.33 -6.06,-165.84l-1.59 -41.54 -0.79 -20.82 -0.21 -5.21 -0.53 -46.57 -0.16 -2.17 -0.66 -8.63 -5.32 -68.98c-7.17,-92.05 -14.34,-184.49 -21.51,-276.94l-5.48 -69.98 -8.26 -90.75c-5.72,-60.35 -11.4,-120.68 -17.09,-180.87 -5.9,-60.09 -11.83,-120.09 -17.7,-179.89 -3.04,-29.87 -6.06,-59.69 -9.08,-89.46 -3.65,-27.54 -7.3,-55.03 -10.95,-82.52 -30.14,-218.07 -57.04,-432.38 -95.46,-638.41 -18.15,-103.08 -34.9,-204.44 -53.74,-303.24 -20.56,-98.56 -40.67,-194.92 -60.25,-288.77 -37.09,-187.8 -83.69,-363.19 -122.95,-525.33 -10.05,-40.45 -19.9,-80.14 -29.5,-118.85 -10.69,-38.55 -21.17,-76.12 -31.35,-112.82 -20.69,-73.18 -40.3,-142.64 -58.76,-207.83 -18.79,-65.11 -35.35,-126.23 -52.65,-182.27 -17.83,-55.85 -34.18,-107.18 -48.97,-153.54 -21.93,-68.1 -40.43,-125.47 -55.01,-170.79 -21.56,-66.91 -92.26,-104.54 -159.89,-85.28l-4249.55 1211.02c-64.74,18.44 -104.88,82.95 -92.55,149.15 4.6,24.71 9.87,53.02 15.74,84.69 6.06,31.88 12.78,67.23 20.08,105.67 6.91,38.55 12.33,80.78 19.29,125.41 6.83,44.69 14.08,92.29 21.72,142.43 3.73,25.06 8.15,50.59 11.62,76.99 3.02,26.46 6.09,53.58 9.26,81.23 11.83,110.7 29.5,229.39 37.39,356.66 5.21,63.31 10.61,128.38 16.11,194.76 4.13,66.62 6.19,134.88 9.74,203.97 9.21,137.93 7.46,281.54 10.11,426.38l0.61 53.95 -1.91 47.76c-1.08,31.83 -2.2,63.71 -3.28,95.7 -0.85,31.83 -1.72,63.76 -2.59,95.75l-1.01 47.81 -2.91 68.84c-3.92,92.66 -7.91,185.26 -11.85,277.55l-2.94 69.14 -0.4 8.63 -0.08 2.12c0.05,10.4 -0.79,-82.31 -0.53,-42.28l-0.34 3.41 -1.27 13.65 -2.51 27.28c-3.28,36.33 -6.56,72.44 -9.82,108.53 -3.15,35.96 -6.3,71.83 -9.39,107.47 -4.23,35.51 -8.44,70.86 -12.67,105.94 -9.02,70.11 -14.58,139.57 -25.74,207.22 -9.79,67.71 -19.42,134.2 -28.84,199.36 -11.27,64.69 -22.28,128.01 -32.97,189.6 -9.68,61.65 -22.65,121.02 -34.18,178.49 -12.07,57.36 -21.67,113.06 -34.18,165.92 -12.2,52.86 -23.89,103.45 -35.03,151.61 -5.5,23.76 -10.85,46.91 -16.03,69.45 -5.34,19.31 -10.5,38.05 -15.56,56.22 -2.96,11.11 -5.77,21.54 -8.65,32.31l5197.42 0.02c69.66,0 127.69,-54.66 130.33,-124.27 0.03,-0.42 0.03,-0.82 0.05,-1.24 4.31,-96.78 8.76,-196.16 13.31,-297.76 1.93,-101.49 3.89,-205.21 5.93,-310.67 2.96,-105.36 -0.24,-212.43 -0.53,-320.7 -0.61,-54.13 -1.16,-108.55 -1.74,-163.27z"/>
     <path class="fil3" d="M21122.76 15033.98c69.72,-28.07 101.52,-108.82 69.37,-176.74 -14.29,-30.19 -30.98,-65.48 -49.9,-105.41 -17.86,-37.52 -37.6,-79.06 -59.03,-124.27 -27.75,-56.54 -57.76,-117.66 -89.85,-182.99 -32.33,-65.06 -66.7,-134.3 -103,-207.27 -18.39,-37.94 -36.46,-69.24 -55.38,-104.85 -18.84,-34.82 -38.13,-70.43 -57.84,-106.81 -39.61,-72.6 -80.12,-148.51 -123.59,-226.25 -44.9,-76.89 -91.31,-156.42 -139.01,-238.18 -23.92,-40.77 -48.18,-82.13 -72.73,-123.93 -25.69,-41.17 -51.7,-82.84 -77.97,-124.96 -52.84,-83.9 -106.84,-169.65 -161.71,-256.8 -115.81,-170.66 -231.09,-349.14 -359.75,-522.84 -31.59,-43.73 -63.37,-87.62 -95.2,-131.65l-47.89 -65.99 -49.85 -64.9c-66.68,-86.33 -133.61,-172.96 -200.55,-259.61 -68.13,-85.65 -138.62,-169.49 -207.7,-253.66 -34.93,-41.8 -68.77,-84.22 -104.4,-125.07 -35.75,-40.72 -71.36,-81.33 -106.89,-121.79 -35.53,-40.3 -70.91,-80.51 -106.12,-120.49 -35,-40.14 -70.3,-79.59 -106.71,-117.74 -72.07,-76.76 -143.25,-152.56 -213.25,-227.14 -70.11,-74.35 -142.72,-144.22 -211.8,-214.07 -69.59,-69.48 -137.21,-137.72 -206.27,-201.08 -68.29,-63.92 -134.75,-126.1 -198.99,-186.27 -63.98,-60.3 -129.3,-115.07 -190.16,-169.31 -61.36,-53.66 -120.17,-105.07 -176.11,-153.96 -57.36,-47.28 -111.79,-92.1 -162.9,-134.22 -51.17,-41.96 -99.03,-81.23 -143.3,-117.53 -44.34,-36.17 -86.76,-67.52 -124.14,-96.76 -54.45,-41.78 -100.44,-77.07 -136.97,-105.12 -55.69,-42.76 -135.1,-33.63 -179.86,20.53l-2280.81 2760.82c-42.99,52.07 -39.32,128.15 8.65,175.67 19.08,18.84 41.09,40.64 65.85,65.17 23.73,23.84 50.93,49.08 78.82,78.55 27.89,29.45 58,61.33 90.2,95.36 32.25,33.87 66.54,69.9 102.66,107.9 34.85,39.21 71.49,80.51 109.72,123.56 37.76,43.44 79.03,86.57 118.3,134.67 39.61,47.63 80.54,96.84 122.66,147.45 42.89,49.69 83.82,103.64 126.21,158.14 41.94,54.87 86.76,108.98 128.88,167.01 42.15,57.84 84.98,116.63 128.35,176.16 22.12,29.29 43.1,59.85 63.76,90.86 20.9,30.8 41.91,61.7 63,92.76 21.11,30.9 42.36,61.97 63.61,93.13 21.22,31.17 40.67,63.76 61.17,95.65 40.27,64.35 82.02,127.74 121.6,192.54 38.58,65.43 77.18,130.89 115.6,196.06l28.84 48.63 27.01 49.66c18.04,32.97 36.01,65.88 53.92,98.61 73.95,129.35 136.37,262.73 201.69,388.04 29.9,64.24 59.29,127.37 88.08,189.23 14.39,30.8 28.63,61.28 42.7,91.36 13.04,30.64 25.9,60.88 38.6,90.75 25.53,59.43 50.35,117.32 74.4,173.22 22.2,56.7 43.63,111.47 64.21,164.02 10.32,26.25 20.37,51.94 30.22,77.05 9.31,24.5 20.85,51.01 27.04,71.41 14.68,42.84 28.58,83.5 41.65,121.71 13.34,37.94 25.85,73.42 37.39,106.26 15.16,45.27 29.08,86.76 41.65,124.27 14,41.91 26.33,78.95 36.91,110.7 23.76,71.25 102.66,107.58 172.38,79.59l3954.53 -1588.84z"/>
     <path class="fil3" d="M9508 10102.66c34.55,4.71 72.76,9.92 114.41,15.61 41.38,7.2 86.15,15 133.96,23.34 47.73,8.2 98.53,16.91 152.06,26.11 46.51,7.73 94.69,18.94 144.78,29.42l1439.44 -2944.34c-71.36,-11.14 -142.13,-22.2 -211.48,-33.02 -47.52,-7.06 -94.3,-15.19 -140.89,-21.01 -46.59,-5.64 -92.63,-11.22 -138.06,-16.72 -90.73,-10.77 -178.96,-21.27 -264.29,-31.41 -85.57,-7.33 -168.25,-14.42 -247.6,-21.22 -79.38,-6.09 -155.07,-14.1 -227.54,-17.54 -72.34,-3.55 -140.97,-6.93 -205.45,-10.11 -64.43,-3.04 -124.7,-5.87 -180.39,-8.52 -55.75,-0.9 -106.97,-1.72 -153.25,-2.46 -65.09,-0.79 -120.33,-1.46 -164.62,-1.98 -70.25,-0.85 -128.38,54.05 -131.74,124.22l-131.26 2740.47c-3.23,67.52 45.48,126.31 112.45,135.49 28.51,3.93 61.77,8.51 99.47,13.67z"/>
     <path class="fil3" d="M13376.71 11611.65c38.68,28.13 75.35,54.8 109.8,79.9 34.5,24.71 66.81,47.84 96.68,69.24 12.94,8.89 34.29,25.08 51.73,38.05 17.97,13.41 35.08,26.19 51.3,38.31 35.43,26.43 66.7,49.77 93.48,69.74 60.22,44.93 145.68,29.74 186.93,-33.07l1879.34 -2862.69c41.28,-62.81 21.25,-147.29 -43.95,-184.68 -29,-16.62 -62.84,-36.04 -101.15,-58.02 -17.59,-10.11 -36.12,-20.72 -55.59,-31.88 -21.19,-11.99 -43.34,-24.53 -66.44,-37.6 -53.47,-29.47 -111.31,-61.3 -173.09,-95.36 -61.81,-33.68 -127.61,-69.51 -196.93,-107.32 -66.07,-33.1 -135.49,-67.89 -207.96,-104.22 -72.76,-35.51 -147,-75.01 -226.62,-110.86 -79.24,-36.3 -161.16,-73.85 -245.35,-112.45 -83.63,-39.48 -171.9,-75.33 -261.49,-112.95 -89.96,-36.83 -180.47,-77.1 -275.01,-112.63 -23.94,-9.08 -48.26,-18.26 -72.39,-27.41l-810.74 3518.91c44.82,28.15 87.05,58 128.64,84.93 48.43,32.11 94.73,62.83 138.81,92.06z"/>
     <path class="fil3" d="M6984.56 10088.32c36.3,-4.79 71.94,-10.72 107.53,-14.47 35.59,-3.6 70.75,-7.17 105.41,-10.72 69.19,-7.17 136.47,-14.16 201.59,-20.93 65.3,-4.37 128.4,-8.6 188.97,-12.67 30.22,-2.06 59.8,-4.07 88.71,-6.06 28.84,-1.93 57.73,-4.39 82.5,-4.42 51.04,-1.35 99.48,-2.59 144.97,-3.78 45.35,-1.43 87.74,-2.78 127,-4.02 48.39,-0.32 92.84,-0.61 132.95,-0.87 44.19,-0.24 83.24,-0.45 116.63,-0.64 75.14,-0.4 134.2,-64.03 129.28,-139.01l-169.17 -2581.54c-4.95,-74.98 -71.78,-130.36 -146.31,-120.94 -33.15,4.18 -71.86,9.08 -115.7,14.61 -40.64,5.16 -85.65,10.9 -134.65,17.15 -57.89,8.6 -120.49,17.86 -187.4,27.78 -66.7,10.16 -137.72,20.98 -212.57,32.39 -38.31,5.4 -73.58,12.57 -110.6,19.55 -36.91,7.04 -74.67,14.26 -113.22,21.62 -76.97,14.87 -157.11,30.37 -240.14,46.41 -82.36,18.76 -167.56,38.18 -255.11,58.1 -43.68,10.03 -87.97,20.21 -132.79,30.53 -44.77,10.48 -89.67,23.28 -135.2,35.06 -90.88,24.21 -183.67,48.95 -278.08,74.08 -93.45,28.18 -188.46,56.81 -284.61,85.8 -47.94,14.84 -96.39,28.84 -144.54,44.69 -47.93,16.38 -96.22,32.81 -144.64,49.34 -48.34,16.56 -96.86,33.18 -145.52,49.87 -48.68,16.56 -97.45,33.21 -145.55,52.18 -96.44,36.8 -193.25,73.77 -290.06,110.73 -96.39,37.73 -191.19,79.53 -286.2,119.09 -47.36,20.19 -94.85,39.66 -141.66,60.38 -46.49,21.46 -92.82,42.84 -138.99,64.16 -46.06,21.33 -91.97,42.6 -137.61,63.74 -45.64,21.11 -91.1,41.91 -135.28,64.85 -88.69,44.77 -176.29,89.01 -262.44,132.5 -86.17,43.21 -168.3,90.88 -249.87,134.78 -81.2,44.71 -161.05,87.37 -236.38,133.32 -75.75,44.93 -149.44,88.66 -220.72,130.94 -71.49,41.7 -137.8,86.73 -202.78,127.42 -64.53,41.35 -126.37,81.02 -185.18,118.72 -57.55,39.5 -112.16,76.97 -163.46,112.18 -51.17,35.24 -99.06,68.21 -143.35,98.72 -44.24,30.51 -83.37,60.75 -119.43,86.89 -48.87,36.09 -90.59,66.89 -124.35,91.81 -56.38,41.62 -69.61,120.23 -30.19,178.2l1071.96 1576.02c38.15,56.09 112.74,73.69 171.82,40.32 27.23,-15.35 59.4,-33.52 96.1,-54.21 31.99,-17.7 66.6,-38.6 105.67,-58.95 39.05,-20.37 81.28,-42.33 126.39,-65.83 44.98,-23.52 92.87,-48.55 143.32,-74.93 51.33,-24.61 105.28,-50.48 161.58,-77.47 56.57,-26.35 113.96,-56.54 175.84,-82.87 61.41,-26.96 124.91,-54.82 190.21,-83.48 64.64,-29.77 133.11,-55.77 202.38,-83.56 69.64,-26.99 139.38,-57.52 212.43,-83.32 72.73,-26.22 146.71,-52.86 221.56,-79.85 37.12,-14.1 75.33,-26.04 113.61,-38.26 38.21,-12.3 76.62,-24.66 115.17,-37.07 38.47,-12.44 77.1,-24.92 115.83,-37.47 38.95,-11.83 78.45,-22.41 117.69,-33.73 78.82,-21.8 157.1,-45.98 236.47,-66.25 79.43,-19.66 158.86,-39.32 237.97,-58.87 39.26,-10.45 79.11,-18.63 118.77,-26.8 39.58,-8.33 79.06,-16.64 118.4,-24.92 39.21,-8.33 78.29,-16.62 117.18,-24.87 38.97,-7.78 78.16,-13.78 116.81,-20.74 77.31,-13.41 153.67,-26.7 228.81,-39.71 75.42,-10.41 149.59,-20.68 222.24,-30.7z"/>
     <path class="fil3" d="M-324.78 12125.98c-28.1,39.74 -56.3,79.67 -84.64,119.75 -28.26,40.06 -56.62,80.27 -85.09,120.62 -28.34,40.4 -54.85,82.31 -82.42,123.53 -54.35,82.99 -109.96,165.35 -163.2,249.28 -51.99,84.64 -103.98,169.28 -155.76,253.6l-38.63 63.13 -36.67 64.16c-24.37,42.65 -48.66,85.22 -72.87,127.58 -98.95,168.09 -184.92,339.91 -272.28,503.11 -40.67,83.21 -80.67,165.05 -119.83,245.16 -19.42,40.01 -38.66,79.64 -57.63,118.75 -17.86,39.63 -35.48,78.82 -52.89,117.5 -34.66,77.21 -68.37,152.35 -100.99,225 -30.43,73.58 -59.85,144.65 -88.08,212.86 -27.68,68.42 -55.64,133.16 -79.48,196 -23.52,62.89 -45.85,122.58 -66.86,178.65 -20.9,56.01 -40.45,108.43 -58.53,156.9 -16.7,48.95 -32.01,93.9 -45.88,134.51 -17.99,53.39 -33.44,99.22 -46.06,136.74 -22.36,66.3 11.64,138.24 76.99,163.3l997.74 382.51c63.5,24.34 135.02,-4.07 164.36,-65.43 14.55,-30.37 31.94,-66.75 51.91,-108.53 16.56,-34.42 34.87,-72.55 54.85,-114.06 21.22,-40.93 44.16,-85.12 68.69,-132.4 24.45,-47.12 50.43,-97.37 77.84,-150.28 27.62,-52.76 59.43,-106.87 90.99,-164.02 31.96,-56.83 65.27,-116.07 99.75,-177.4 36.33,-60.14 73.87,-122.37 112.5,-186.35 19.24,-31.94 38.74,-64.29 58.47,-97.05 20.77,-32.15 41.8,-64.64 63.05,-97.58 42.49,-65.62 85.91,-132.61 130.07,-200.82 93.82,-132.82 185.58,-272.71 289.27,-407.62 25.32,-34.1 50.75,-68.32 76.25,-102.63l38.23 -51.51 40.06 -50.38c53.34,-67.18 106.89,-134.57 160.44,-201.96 54.53,-66.57 111.13,-131.42 166.13,-196.82 27.89,-32.46 54.66,-65.59 83.21,-97.16 28.58,-31.51 57.04,-62.94 85.41,-94.24 28.31,-31.27 56.49,-62.42 84.53,-93.42 27.78,-31.17 55.83,-61.78 84.96,-91.12 57.31,-59.35 113.93,-117.98 169.62,-175.68 55.59,-57.6 113.61,-111.05 168.38,-165.07 55.19,-53.63 108.59,-106.55 163.57,-155.05 54.08,-49.21 106.68,-97.08 157.59,-143.39 50.48,-46.59 102.5,-88.19 150.55,-129.94 48.37,-41.2 94.72,-80.67 138.8,-118.22 43.29,-34.26 84.35,-66.75 122.93,-97.34 38.36,-30.53 74.27,-59.13 107.47,-85.59 15.24,-12.59 35.88,-27.68 53.31,-40.93 17.89,-13.52 34.95,-26.38 51.14,-38.58 35.27,-26.64 66.41,-50.14 93.08,-70.25 59.98,-45.27 69.27,-131.58 20.48,-188.73l-1135.99 -1330.83c-48.79,-57.15 -135.49,-61.52 -189.6,-9.39 -24.05,23.18 -52.18,50.24 -83.98,80.91 -14.61,14.05 -30,28.89 -46.14,44.42 -16.43,15.95 -32.07,30.48 -52.44,51.3 -38.95,39.29 -81.04,81.81 -126.05,127.21 -44.77,45.43 -92.42,93.77 -142.66,144.73 -46.7,50.59 -95.81,103.77 -147.03,159.25 -50.59,55.91 -105.15,112.24 -157.93,173.99 -53,61.44 -107.76,124.96 -164.09,190.24 -57.02,64.51 -112.18,133.8 -168.94,204.1 -56.33,70.67 -115.7,141.18 -172.35,215.9 -56.49,74.72 -113.9,150.68 -172.01,227.62 -29.5,38.14 -57.73,77.51 -85.62,117.46z"/>
     <path class="fil3" d="M-2389.06 16791.95c-6.64,32.7 -14.42,71.01 -23.23,114.3 -8.07,39.74 -17.01,83.77 -26.75,131.68 -9.55,49 -18.89,106.87 -29.32,165.92 -10.27,59.64 -21.17,123.08 -32.65,189.97 -5.56,33.34 -11.91,67.79 -17.17,102.53 -4.68,34.53 -9.45,69.82 -14.34,105.83 -18.63,144.28 -43.15,299.51 -57.28,465.35 -8.2,82.63 -16.62,167.48 -25.21,254.24 -7.09,86.86 -11.83,175.82 -17.94,265.99 -14.29,180.21 -16.91,367.11 -22.86,556.18l-1.93 71.06 0.34 71.36c0.26,47.65 0.53,95.38 0.79,143.25 0.29,47.81 0.58,95.7 0.85,143.62l0.45 71.89 2.75 71.94c3.89,95.7 7.78,191.45 11.67,286.81l2.94 71.31 0.9 23.1 1.27 17.2 2.54 34.37c3.39,45.83 6.75,91.52 10.11,137.05 3.36,45.53 6.72,90.86 10.03,135.97 4.58,47.02 9.1,93.9 13.65,140.47 4.58,46.51 9.13,92.71 13.65,138.64 2.28,22.89 4.55,45.75 6.83,68.47 2.83,22.38 5.66,44.69 8.47,66.91 11.27,88.64 22.36,175.82 33.21,261.17 13.1,84.96 25.9,168.12 38.34,249.03 11.64,80.88 26.64,159.12 40.43,234.76 1.14,6.06 2.28,12.04 3.39,18.04 11.51,61.86 65.33,106.65 128.22,106.65l351.63 0c75.09,0 134.67,-63.21 130.25,-138.14 -1.19,-20 -2.41,-40.22 -3.76,-60.62 -4.39,-72.92 -9.68,-148.11 -11.38,-225.72 -2.54,-77.47 -5.13,-157.06 -7.81,-238.39 -0.5,-81.28 -1.01,-164.33 -1.51,-248.81 -0.13,-21.09 -0.26,-42.28 -0.4,-63.5 0.45,-20.93 0.93,-41.96 1.4,-63.1 0.93,-42.12 1.85,-84.59 2.8,-127.32 0.93,-42.62 1.88,-85.57 2.83,-128.72 2.12,-45.16 4.21,-90.59 6.35,-136.15 2.12,-45.59 4.26,-91.36 6.38,-137.27l1.61 -34.48 0.79 -17.25 0.11 -2.17c0,-5.48 0.11,5.05 0.16,3.25l0.32 -4.18 0.66 -8.31 5.34 -66.75c7.09,-89.03 14.21,-178.33 21.35,-267.68l5.45 -66.86 7.7 -66.7c5.13,-44.4 10.24,-88.74 15.35,-133.01 5.08,-44.24 10.16,-88.37 15.21,-132.34l7.54 -65.83 9.76 -65.38c26.78,-173.83 49.53,-344.83 82.87,-508.56 15.64,-82.02 29.63,-162.72 45.69,-241.27 17.49,-78.24 34.58,-154.78 51.22,-229.29 30.8,-149.25 70.72,-288 103.21,-416.61 8.33,-32.09 16.48,-63.55 24.45,-94.24 8.41,-30.24 17.49,-58.87 25.85,-87.23 16.85,-56.44 32.86,-109.96 47.89,-160.31 15.37,-50.75 27.99,-96.12 42.7,-141.66 15.43,-46.46 29.55,-89.03 42.36,-127.53 13.92,-41.96 26.22,-79 36.75,-110.75 23.68,-71.25 -17.67,-147.64 -90.28,-166.98l-881.57 -235.08c-72.57,-19.4 -146.45,26.24 -161.42,99.88z"/>
     <path class="fil3" d="M7590.01 21361.25c286.81,140.2 590.63,206.67 889.74,206.67 750.83,0 1472.41,-418.33 1824.38,-1138.32 67.79,-138.59 120.25,-291.6 154.38,-435.69l2052.56 -8908.96 781.69 -3392.83 484.27 -2101.77c56.36,-244.61 -138.22,-411.24 -333.43,-411.24 -114.27,0 -228.79,57.12 -293.34,189.12l-985.44 2015.68 -1453.73 2973.55 -4052.76 8289.67c-492.2,1006.76 -75.06,2221.94 931.68,2714.12zm964.99 -2868.98c549.25,0 994.52,445.24 994.52,994.52 0,549.22 -445.27,994.52 -994.52,994.52 -549.25,0 -994.52,-445.29 -994.52,-994.52 0,-549.34 445.27,-994.52 994.52,-994.52z"/>
    </g>
   </g>
   <g id="_2675588842912">
   </g>
   <g id="_2675588841600">
   </g>
   <g id="_2675588841056">
   </g>
   <g id="_2675588841728">
   </g>
   <g id="_2675588840672">
   </g>
   <g id="_2675588838400">
   </g>
   <g id="_2675588839520">
   </g>
   <g id="_2675588839744">
   </g>
   <g id="_2675588836128">
   </g>
   <g id="_2675588837216">
   </g>
   <g id="_2675588837632">
   </g>
   <g id="_2675588837504">
   </g>
   <g id="_2675588835552">
   </g>
   <g id="_2675588834272">
   </g>
   <g id="_2675588832832">
   </g>
  </g>
 </g>
</svg>
