<?xml version="1.0" encoding="UTF-8"?>
<!DOCTYPE svg PUBLIC "-//W3C//DTD SVG 1.1//EN" "http://www.w3.org/Graphics/SVG/1.1/DTD/svg11.dtd">
<!-- Creator: CorelDRAW 2018 (64 Bit Versão de avaliação) -->
<svg xmlns="http://www.w3.org/2000/svg" xml:space="preserve" width="210mm" height="297mm" version="1.1" style="shape-rendering:geometricPrecision; text-rendering:geometricPrecision; image-rendering:optimizeQuality; fill-rule:evenodd; clip-rule:evenodd"
viewBox="0 0 21000 29700"
 xmlns:xlink="http://www.w3.org/1999/xlink"
 xmlns:dc="http://purl.org/dc/elements/1.1/"
 xmlns:cc="http://creativecommons.org/ns#"
 xmlns:rdf="http://www.w3.org/1999/02/22-rdf-syntax-ns#"
 xmlns:svg="http://www.w3.org/2000/svg"
 enable-background="new 0 0 1000 1000">
 <defs>
  <style type="text/css">
   <![CDATA[
    .fil2 {fill:none;fill-rule:nonzero}
    .fil3 {fill:#FEFEFE}
    .fil0 {fill:#BDBFC1;fill-rule:nonzero}
    .fil1 {fill:url(#id1);fill-rule:nonzero}
   ]]>
  </style>
    <clipPath id="id0" style="clip-rule:nonzero">
     <path d="M18872.27 11570.27l-62.58 0 0 44.1 62.58 0 0 -44.1z"/>
    </clipPath>
  <radialGradient id="id1" gradientUnits="userSpaceOnUse" gradientTransform="matrix(11.6202 -0 -0 -11.6202 -200094 145740)" cx="18840.98" cy="11548.22" r="31.29" fx="18840.98" fy="11548.22">
   <stop offset="0" style="stop-opacity:1; stop-color:#171817"/>
   <stop offset="0.0705882" style="stop-opacity:1; stop-color:#171817"/>
   <stop offset="0.909804" style="stop-opacity:1; stop-color:#171817"/>
   <stop offset="1" style="stop-opacity:1; stop-color:#171817"/>
  </radialGradient>
 </defs>
 <g id="Camada_x0020_1">
  <metadata id="CorelCorpID_0Corel-Layer"/>
  <polygon id="path24" class="fil0" points="24021.1,27554.17 -4201.12,27554.17 -4201.12,-668.05 24021.1,-668.05 "/>
  <g id="g120">
   <g>
   </g>
   <g style="clip-path:url(#id0)">
    <g id="_2710034056800">
     <polygon id="path138" class="fil1" points="18872.27,11570.27 18809.69,11570.27 18809.69,11614.37 18872.27,11614.37 "/>
    </g>
   </g>
   <polygon class="fil2" points="18872.27,11570.27 18809.69,11570.27 18809.69,11614.37 18872.27,11614.37 "/>
  </g>
  <g>
   <g id="_2710034052448">
    <g>
     <path class="fil3" d="M2321.69 1257.66c-224.52,66.36 -459.52,316.57 -525.88,561.54 -35.67,132.72 -51.14,694.26 -40.91,1541.7 15.22,1495.79 30.69,1562.14 393.16,1786.66 362.47,224.52 878.11,91.81 1102.63,-280.65 97.04,-158.16 102.03,-260.44 102.03,-1623.26 0,-1362.83 -4.99,-1465.11 -102.03,-1623.27 -183.6,-306.34 -586.99,-459.51 -929,-362.72z"/>
     <path class="fil3" d="M8039.17 1257.66c-224.52,66.36 -459.51,316.57 -525.87,561.54 -35.68,132.72 -51.14,694.26 -40.91,1541.7 15.21,1495.79 30.68,1562.14 393.15,1786.66 362.47,224.52 878.12,91.81 1102.64,-280.65 91.8,-153.17 102.03,-275.65 117.49,-1444.65 10.23,-704.48 4.99,-1373.3 -15.21,-1495.79 -40.91,-280.64 -316.57,-597.22 -576.77,-673.8 -214.78,-56.13 -234.99,-56.13 -454.52,4.99z"/>
     <path class="fil3" d="M13756.4 1257.66c-224.51,66.36 -459.51,316.57 -525.87,561.54 -35.67,132.72 -51.14,694.26 -40.91,1541.7 15.22,1495.79 30.68,1562.14 393.16,1786.66 362.47,224.52 878.11,91.81 1102.63,-280.65 91.8,-153.17 102.03,-275.65 117.5,-1444.65 10.23,-704.48 5.24,-1373.3 -15.22,-1495.79 -40.91,-280.64 -316.57,-597.22 -576.76,-673.8 -214.54,-56.13 -235,-56.13 -454.53,4.99z"/>
     <path class="fil3" d="M519.55 2886.16c-724.69,86.82 -1301.7,377.69 -1863,944.48 -454.28,449.28 -714.72,888.34 -878.12,1454.88 -86.81,316.57 -91.8,709.47 -91.8,7733.9 0,8182.95 -25.45,7626.64 342.02,8397.49 372.7,781.07 1173.98,1454.88 2057.33,1715.07 285.89,86.81 684.04,92.05 5492.72,107.27l5181.38 20.46 -194.08 -398.15c-107.27,-219.53 -255.2,-586.99 -326.8,-816.75l-132.72 -423.59 -4834.12 -10.48 -4829.14 -15.21 -255.21 -137.96c-306.34,-163.4 -582,-444.05 -745.4,-755.63l-122.48 -229.75 -15.22 -5554.09 -10.23 -5548.84 8984.48 0 8984.47 0 0 2057.33 0 2057.09 357.23 61.37c194.09,30.68 561.55,127.72 816.75,209.3l464.5 147.93 -20.45 -4165.56c-15.22,-4635.31 4.99,-4344.18 -372.7,-5115.03 -280.65,-561.54 -867.89,-1143.55 -1449.89,-1419.2 -428.83,-199.08 -714.72,-280.65 -1184.21,-337.03l-244.97 -30.69 0 1010.84c0,1005.59 0,1005.59 -147.94,1311.93 -290.87,607.45 -821.73,944.47 -1485.56,944.47 -663.58,0 -1194.44,-337.02 -1485.56,-944.47 -147.94,-306.34 -147.94,-306.34 -147.94,-1316.92l0 -1005.6 -1220.13 0 -1225.12 0 -15.47 1056.74c-15.21,1036.27 -20.45,1066.96 -153.17,1316.92 -178.62,342.02 -459.51,602.46 -826.97,770.85 -265.43,117.5 -342.02,132.71 -714.72,112.26 -643.12,-35.68 -1102.64,-326.8 -1398.75,-883.11 -132.72,-250.21 -137.95,-280.65 -153.17,-1316.92l-15.47 -1056.74 -1220.13 0 -1220.13 0 -15.22 1056.74c-15.22,1036.27 -20.46,1066.96 -153.17,1316.92 -178.62,342.02 -459.52,602.46 -826.98,770.85 -265.43,117.5 -342.01,132.71 -714.71,112.26 -673.81,-35.68 -1153.78,-357.24 -1429.44,-959.69 -127.72,-270.42 -132.71,-316.58 -132.71,-1291.48 0,-551.32 -15.22,-1000.61 -35.68,-1000.61 -24.94,5.24 -188.34,25.7 -372.2,46.15z"/>
     <path class="fil3" d="M2321.69 11059.13c-229.76,66.36 -464.51,321.56 -530.86,571.77 -30.69,117.5 -45.91,439.06 -35.68,724.95 20.46,582 102.03,775.83 398.15,959.69 168.39,107.27 239.98,112.26 1225.12,112.26 985.14,0 1056.73,-4.99 1225.12,-112.26 326.8,-204.31 382.93,-362.47 382.93,-1087.42 0,-724.94 -56.13,-883.1 -382.93,-1087.41 -163.4,-102.04 -250.21,-112.26 -1148.54,-122.49 -530.86,-5.24 -1041.51,10.23 -1133.31,40.91z"/>
     <path class="fil3" d="M7222.17 11059.13c-229.75,66.36 -464.5,321.56 -530.86,571.77 -30.68,117.5 -45.9,439.06 -35.67,724.95 20.45,582 102.03,775.83 398.14,959.69 168.39,107.27 239.99,112.26 1225.13,112.26 985.13,0 1056.73,-4.99 1225.12,-112.26 326.8,-204.31 382.93,-362.47 382.93,-1087.42 0,-724.94 -56.13,-883.1 -382.93,-1087.41 -163.4,-102.04 -250.22,-112.26 -1148.54,-122.49 -530.86,-5.24 -1041.26,10.23 -1133.32,40.91z"/>
     <path class="fil3" d="M12122.91 11059.13c-229.76,66.36 -464.5,321.56 -530.86,571.77 -30.69,117.5 -45.9,439.06 -35.68,724.95 20.46,582 102.04,775.83 398.15,959.69 168.39,107.27 239.99,112.26 1225.12,112.26 985.14,0 1056.73,-4.99 1225.12,-112.26 326.8,-204.31 382.93,-362.47 382.93,-1087.42 0,-724.94 -56.13,-883.1 -382.93,-1087.41 -163.4,-102.04 -250.21,-112.26 -1148.53,-122.49 -530.86,-5.24 -1041.52,10.23 -1133.32,40.91z"/>
     <path class="fil3" d="M2321.69 14326.12c-229.76,66.36 -464.51,321.56 -530.86,571.77 -30.69,117.5 -45.91,439.06 -35.68,724.95 20.46,582 102.03,775.83 398.15,959.69 168.39,107.27 239.98,112.26 1225.12,112.26 985.14,0 1056.73,-5.24 1225.12,-112.26 326.8,-204.31 382.93,-362.47 382.93,-1087.42 0,-724.94 -56.13,-883.1 -382.93,-1087.41 -163.4,-102.04 -250.21,-112.26 -1148.54,-122.49 -530.86,-4.99 -1041.51,10.23 -1133.31,40.91z"/>
     <path class="fil3" d="M7222.17 14326.12c-229.75,66.36 -464.5,321.56 -530.86,571.77 -30.68,117.5 -45.9,439.06 -35.67,724.95 20.45,582 102.03,775.83 398.14,959.69 168.39,107.27 239.99,112.26 1225.13,112.26 985.13,0 1056.73,-5.24 1225.12,-112.26 326.8,-204.31 382.93,-362.47 382.93,-1087.42 0,-724.94 -56.13,-883.1 -382.93,-1087.41 -163.4,-102.04 -250.22,-112.26 -1148.54,-122.49 -530.86,-4.99 -1041.26,10.23 -1133.32,40.91z"/>
     <path class="fil3" d="M15859.64 14320.88c-1015.82,102.03 -2067.56,525.87 -2884.31,1148.54 -372.7,290.87 -1000.6,949.46 -1240.34,1316.92 -663.58,1000.61 -964.93,2001.21 -964.93,3200.64 -4.99,1516.24 500.18,2787.27 1531.47,3884.66 612.68,653.35 1214.89,1071.95 2001.2,1388.52 2159.37,867.89 4624.83,347.01 6217.66,-1311.93 934.25,-969.92 1465.11,-2118.46 1587.6,-3420.16 163.4,-1791.66 -454.28,-3430.39 -1761.22,-4675.97 -1194.44,-1138.06 -2838.17,-1699.61 -4487.13,-1531.22zm1531.47 1679.65c796.29,194.08 1480.32,586.99 2016.42,1164 770.85,821.99 1123.09,1710.08 1123.09,2822.95 0,1398.74 -648.36,2618.63 -1817.35,3409.93 -1184.21,801.53 -2787.27,903.56 -4083.74,260.44 -2006.19,-990.37 -2843.4,-3456.08 -1858.26,-5482.49 515.64,-1051.74 1546.68,-1883.71 2684.99,-2164.35 551.56,-138.21 1388.52,-138.21 1934.85,-10.48z"/>
     <path class="fil3" d="M16206.65 16776.36c-224.52,66.36 -459.52,316.58 -525.87,561.55 -35.68,132.71 -51.14,694.26 -40.92,1541.69 15.22,1495.79 30.69,1556.91 398.15,1786.67 173.63,107.27 224.52,112.26 1633.49,112.26 1408.98,0 1459.87,-4.99 1633.5,-112.26 505.42,-316.57 505.42,-1061.72 -10.23,-1368.07 -147.93,-91.8 -275.66,-102.03 -1097.64,-117.49l-924.02 -20.46 -20.46 -924.02c-15.21,-821.98 -25.44,-949.46 -117.49,-1097.64 -183.11,-306.1 -586.25,-464.26 -928.51,-362.23z"/>
     <path class="fil3" d="M2321.69 17593.11c-229.76,66.36 -464.51,321.56 -530.86,571.78 -30.69,117.49 -45.91,439.05 -35.68,724.94 20.46,582 102.03,775.84 398.15,959.69 168.39,107.27 239.98,112.26 1225.12,112.26 985.14,0 1056.73,-5.24 1225.12,-112.26 326.8,-204.06 382.93,-362.47 382.93,-1087.42 0,-724.94 -56.13,-883.1 -382.93,-1087.41 -163.4,-102.03 -250.21,-112.26 -1148.54,-122.49 -530.86,-4.99 -1041.51,10.23 -1133.31,40.91z"/>
     <path class="fil3" d="M7222.17 17593.11c-229.75,66.36 -464.5,321.56 -530.86,571.78 -30.68,117.49 -45.9,439.05 -35.67,724.94 20.45,582 102.03,775.84 398.14,959.69 168.39,107.27 239.99,112.26 1225.13,112.26 985.13,0 1056.73,-5.24 1225.12,-112.26 326.8,-204.06 382.93,-362.47 382.93,-1087.42 0,-724.94 -56.13,-883.1 -382.93,-1087.41 -163.4,-102.03 -250.22,-112.26 -1148.54,-122.49 -530.86,-4.99 -1041.26,10.23 -1133.32,40.91z"/>
    </g>
   </g>
  </g>
 </g>
</svg>
