<?xml version="1.0" encoding="UTF-8" standalone="no"?>
<svg
   xmlns:dc="http://purl.org/dc/elements/1.1/"
   xmlns:cc="http://creativecommons.org/ns#"
   xmlns:rdf="http://www.w3.org/1999/02/22-rdf-syntax-ns#"
   xmlns:svg="http://www.w3.org/2000/svg"
   xmlns="http://www.w3.org/2000/svg"
   viewBox="0 0 1066.6667 1066.6667"
   height="1066.6667"
   width="1066.6667"
   xml:space="preserve"
   id="svg2"
   version="1.1"><metadata
     id="metadata8"><rdf:RDF><cc:Work
         rdf:about=""><dc:format>image/svg+xml</dc:format><dc:type
           rdf:resource="http://purl.org/dc/dcmitype/StillImage" /></cc:Work></rdf:RDF></metadata><defs
     id="defs6"><radialGradient
       id="radialGradient22"
       spreadMethod="pad"
       gradientTransform="matrix(-1883.65,-4741.59,-4741.59,1883.65,4960.93,5303.15)"
       gradientUnits="userSpaceOnUse"
       r="1"
       cy="0"
       cx="0"
       fy="0"
       fx="0"><stop
         id="stop14"
         offset="0"
         style="stop-opacity:1;stop-color:#171817" /><stop
         id="stop16"
         offset="0.0654472"
         style="stop-opacity:1;stop-color:#171817" /><stop
         id="stop18"
         offset="0.90826"
         style="stop-opacity:1;stop-color:#171817" /><stop
         id="stop20"
         offset="1"
         style="stop-opacity:1;stop-color:#171817" /></radialGradient><clipPath
       id="clipPath126"
       clipPathUnits="userSpaceOnUse"><path
         id="path124"
         d="m 6540.49,4530.87 h -17.74 v -12.5 h 17.74 z" /></clipPath><radialGradient
       id="radialGradient136"
       spreadMethod="pad"
       gradientTransform="matrix(103.294,0,0,-103.294,6531.62,4385.06)"
       gradientUnits="userSpaceOnUse"
       r="1"
       cy="0"
       cx="0"
       fy="0"
       fx="0"><stop
         id="stop128"
         offset="0"
         style="stop-opacity:1;stop-color:#171817" /><stop
         id="stop130"
         offset="0.0654472"
         style="stop-opacity:1;stop-color:#171817" /><stop
         id="stop132"
         offset="0.90826"
         style="stop-opacity:1;stop-color:#171817" /><stop
         id="stop134"
         offset="1"
         style="stop-opacity:1;stop-color:#171817" /></radialGradient></defs><g
     transform="matrix(1.3333333,0,0,-1.3333333,0,1066.6667)"
     id="g10"><g
       transform="scale(0.1)"
       id="g12"><path
         id="path24"
         style="fill:url(#radialGradient22);fill-opacity:1;fill-rule:nonzero;stroke:none"
         d="M 8000,0 H 0 V 8000 H 8000 V 0" /><path
         id="path26"
         style="fill:#ffffff;fill-opacity:1;fill-rule:nonzero;stroke:none"
         d="m 2563.72,618.691 c 0,-7.73 1.18,-14.371 3.57,-19.8 2.46,-5.489 5.77,-9.539 9.92,-12.352 4.18,-2.777 8.78,-4.199 13.74,-4.199 5.02,0 9.66,1.422 13.82,4.019 4.14,2.59 7.48,6.551 9.98,12 2.46,5.52 3.72,12.231 3.72,20.332 0,7.668 -1.26,14.188 -3.72,19.649 -2.5,5.512 -5.84,9.769 -10.07,12.66 -4.26,2.941 -8.9,4.34 -13.93,4.34 -5.25,0 -9.94,-1.488 -14.05,-4.399 -4.11,-3.031 -7.32,-7.363 -9.63,-12.921 -2.24,-5.52 -3.35,-11.981 -3.35,-19.329 z m 56.32,-42.07 v 2.899 c -3.84,-4.481 -7.65,-8.04 -11.37,-10.778 -3.75,-2.82 -7.8,-4.883 -12.2,-6.32 -4.38,-1.422 -9.15,-2.172 -14.32,-2.172 -6.84,0 -13.23,1.449 -19.03,4.379 -5.87,2.84 -10.92,7.019 -15.16,12.453 -4.3,5.258 -7.53,11.617 -9.74,18.949 -2.2,7.27 -3.29,15.16 -3.29,23.598 0,17.941 4.38,31.883 13.1,41.902 8.76,9.989 20.26,14.969 34.5,14.969 8.33,0 15.24,-1.441 20.92,-4.238 5.72,-2.864 11.22,-7.211 16.59,-12.992 v 42.21 c 0,5.872 1.19,10.262 3.55,13.34 2.32,3.078 5.7,4.512 9.95,4.512 4.35,0 7.72,-1.391 10.06,-4.18 2.38,-2.754 3.54,-6.843 3.54,-12.191 v -126.34 c 0,-5.461 -1.28,-9.57 -3.76,-12.301 -2.58,-2.691 -5.79,-4.07 -9.84,-4.07 -3.9,0 -7.1,1.379 -9.66,4.219 -2.57,2.812 -3.84,6.933 -3.84,12.152" /><path
         id="path28"
         style="fill:#ffffff;fill-opacity:1;fill-rule:nonzero;stroke:none"
         d="m 2699.84,627.699 h 51.93 c -0.65,9.871 -3.3,17.071 -7.97,21.973 -4.53,4.867 -10.61,7.308 -18.06,7.308 -7.1,0 -13.01,-2.441 -17.58,-7.339 -4.6,-4.981 -7.4,-12.243 -8.32,-21.942 z m 56.04,-16.258 h -56.04 c 0.07,-6.5 1.37,-12.222 3.91,-17.179 2.58,-5.012 5.92,-8.762 10.22,-11.199 4.21,-2.602 8.86,-3.774 13.99,-3.774 3.44,0 6.57,0.332 9.4,1.133 2.82,0.789 5.51,2.148 8.23,3.797 2.66,1.66 5.11,3.531 7.38,5.551 2.22,1.921 5.09,4.601 8.66,7.929 1.47,1.223 3.57,1.942 6.31,1.942 2.98,0 5.27,-0.789 7.14,-2.379 1.8,-1.621 2.72,-3.981 2.72,-6.852 0,-2.66 -1.01,-5.64 -3.04,-9.129 -2.04,-3.492 -5.1,-6.801 -9.24,-9.961 -4.01,-3.14 -9.15,-5.781 -15.39,-7.988 -6.15,-2.043 -13.28,-3.082 -21.36,-3.082 -18.42,0 -32.67,5.289 -42.95,15.719 -10.2,10.492 -15.31,24.672 -15.31,42.722 0,8.469 1.27,16.36 3.77,23.551 2.58,7.219 6.21,13.528 11.05,18.637 4.84,5.199 10.77,9.133 17.84,11.98 7.07,2.743 14.94,4 23.58,4 11.16,0 20.75,-2.269 28.71,-7.05 8.05,-4.657 14.09,-10.778 18.08,-18.27 3.96,-7.437 5.94,-15.129 5.94,-22.898 0,-7.192 -2.07,-11.911 -6.18,-14 -4.14,-2.102 -9.98,-3.2 -17.42,-3.2" /><path
         id="path30"
         style="fill:#ffffff;fill-opacity:1;fill-rule:nonzero;stroke:none"
         d="m 2895.84,597.699 c 0,-7.89 -1.89,-14.636 -5.72,-20.238 -3.86,-5.719 -9.55,-9.992 -17.08,-12.832 -7.5,-2.93 -16.63,-4.379 -27.41,-4.379 -10.26,0 -19.12,1.563 -26.5,4.711 -7.35,3.16 -12.77,7.109 -16.24,11.769 -3.49,4.739 -5.24,9.532 -5.24,14.282 0,3.148 1.1,5.808 3.37,8.039 2.23,2.258 5.02,3.379 8.52,3.379 2.99,0 5.26,-0.719 6.88,-2.219 1.62,-1.359 3.19,-3.531 4.64,-6.16 2.94,-5.102 6.45,-8.86 10.52,-11.399 4.09,-2.492 9.75,-3.8 16.77,-3.8 5.75,0 10.41,1.308 14.12,3.8 3.66,2.578 5.49,5.496 5.49,8.68 0,5.117 -1.92,8.867 -5.68,11.098 -3.85,2.32 -10.12,4.59 -18.89,6.621 -9.83,2.449 -17.87,4.961 -24.05,7.679 -6.2,2.731 -11.14,6.239 -14.88,10.668 -3.66,4.442 -5.54,9.852 -5.54,16.25 0,5.711 1.68,11.18 5.14,16.344 3.4,5.059 8.47,9.09 15.12,12.16 6.76,3.078 14.78,4.547 24.21,4.547 7.38,0 14.06,-0.719 20.04,-2.308 5.92,-1.469 10.83,-3.582 14.78,-6.211 3.96,-2.559 6.96,-5.442 9.02,-8.571 2.05,-3.14 3.07,-6.187 3.07,-9.211 0,-3.289 -1.07,-6.046 -3.26,-8.027 -2.23,-2.133 -5.38,-3.18 -9.4,-3.18 -2.96,0 -5.45,0.758 -7.53,2.489 -2.07,1.629 -4.42,4.172 -7.05,7.582 -2.21,2.758 -4.78,5.039 -7.69,6.718 -2.94,1.661 -6.93,2.52 -11.98,2.52 -5.21,0 -9.46,-1.18 -12.88,-3.371 -3.46,-2.18 -5.11,-4.918 -5.11,-8.207 0,-2.992 1.23,-5.434 3.71,-7.32 2.54,-1.973 5.91,-3.641 10.19,-4.852 4.24,-1.219 10.17,-2.738 17.68,-4.629 8.83,-2.18 16.15,-4.75 21.74,-7.73 5.66,-3.051 9.89,-6.59 12.81,-10.649 2.92,-4.14 4.31,-8.844 4.31,-14.043" /><path
         id="path32"
         style="fill:#ffffff;fill-opacity:1;fill-rule:nonzero;stroke:none"
         d="M 2948.79,660.469 V 577.66 c 0,-5.691 -1.37,-10.07 -4.09,-12.969 -2.72,-2.992 -6.17,-4.441 -10.4,-4.441 -4.2,0 -7.6,1.449 -10.23,4.52 -2.61,2.992 -3.9,7.3 -3.9,12.89 v 81.949 c 0,5.661 1.29,9.961 3.9,12.719 2.63,2.961 6.03,4.371 10.23,4.371 4.23,0 7.68,-1.41 10.4,-4.371 2.72,-2.758 4.09,-6.707 4.09,-11.859 z M 2934.67,690 c -4.06,0 -7.44,1.332 -10.24,3.66 -2.88,2.5 -4.26,5.949 -4.26,10.43 0,4.07 1.42,7.469 4.36,10.051 2.89,2.601 6.23,3.949 10.14,3.949 3.65,0 6.91,-1.219 9.83,-3.57 2.87,-2.43 4.29,-5.911 4.29,-10.43 0,-4.399 -1.37,-7.84 -4.21,-10.36 -2.77,-2.398 -6.05,-3.73 -9.91,-3.73" /><path
         id="path34"
         style="fill:#ffffff;fill-opacity:1;fill-rule:nonzero;stroke:none"
         d="m 3000.76,619.34 c 0,-11.539 2.54,-20.352 7.59,-26.238 5.09,-5.883 11.62,-8.942 19.69,-8.942 4.78,0 9.28,1.289 13.48,3.903 4.23,2.558 7.72,6.367 10.37,11.496 2.69,5.16 4.03,11.402 4.03,18.671 0,11.75 -2.64,20.821 -7.75,27.29 -5.18,6.55 -11.96,9.82 -20.34,9.82 -8.2,0 -14.77,-3.121 -19.66,-9.43 -4.97,-6.18 -7.41,-15 -7.41,-26.57 z m 83.02,36.43 V 572.5 c 0,-9.461 -0.98,-17.68 -3.06,-24.488 -1.96,-6.961 -5.26,-12.481 -9.74,-17.043 -4.47,-4.41 -10.3,-7.797 -17.58,-10.008 -7.26,-2.09 -16.27,-3.191 -27.02,-3.191 -9.9,0 -18.73,1.371 -26.48,4.101 -7.73,2.781 -13.7,6.418 -17.99,10.758 -4.12,4.351 -6.23,8.812 -6.23,13.461 0,3.57 1.21,6.379 3.57,8.539 2.33,2.23 5.2,3.363 8.59,3.363 4.21,0 7.86,-1.883 11.02,-5.621 1.5,-1.871 3.11,-3.762 4.76,-5.723 1.71,-1.859 3.46,-3.527 5.49,-4.878 1.99,-1.399 4.42,-2.399 7.13,-3.059 2.81,-0.648 6.06,-1 9.68,-1 7.41,0 13.2,1 17.31,3.051 4.09,2.058 6.98,4.976 8.66,8.648 1.61,3.719 2.51,7.711 2.78,11.879 0.3,4.274 0.53,11.039 0.71,20.481 -4.43,-6.098 -9.54,-10.891 -15.35,-14.04 -5.74,-3.261 -12.59,-4.941 -20.61,-4.941 -9.55,0 -17.95,2.551 -25.09,7.441 -7.22,4.84 -12.75,11.731 -16.54,20.59 -3.89,8.821 -5.8,18.969 -5.8,30.602 0,8.5 1.18,16.258 3.5,23.23 2.37,6.887 5.67,12.77 10.05,17.489 4.33,4.82 9.36,8.328 15.04,10.839 5.65,2.309 11.86,3.52 18.63,3.52 8.09,0 15.16,-1.5 21.16,-4.668 5.89,-3.07 11.44,-7.961 16.55,-14.551 v 3.778 c 0,5.019 1.23,8.863 3.69,11.582 2.47,2.738 5.56,4.058 9.44,4.058 5.53,0 9.18,-1.801 11.02,-5.367 1.8,-3.621 2.71,-8.723 2.71,-15.562" /><path
         id="path36"
         style="fill:#ffffff;fill-opacity:1;fill-rule:nonzero;stroke:none"
         d="m 3138.8,660.879 v -3.457 c 5.06,6.637 10.53,11.539 16.51,14.598 6.03,3.152 12.86,4.679 20.65,4.679 7.56,0 14.32,-1.64 20.26,-4.867 5.93,-3.32 10.37,-7.961 13.33,-14 1.88,-3.48 3.14,-7.301 3.64,-11.281 0.58,-4.141 0.88,-9.262 0.88,-15.582 V 577.66 c 0,-5.691 -1.34,-10.07 -3.94,-12.969 -2.63,-2.992 -6.08,-4.441 -10.26,-4.441 -4.29,0 -7.71,1.449 -10.4,4.52 -2.65,2.992 -3.99,7.3 -3.99,12.89 v 47.711 c 0,9.438 -1.31,16.719 -3.93,21.738 -2.6,4.961 -7.87,7.43 -15.69,7.43 -5.1,0 -9.79,-1.449 -13.97,-4.547 -4.22,-2.933 -7.28,-7.121 -9.21,-12.422 -1.39,-4.41 -2.12,-12.359 -2.12,-23.961 V 577.66 c 0,-5.789 -1.33,-10.191 -4.03,-13.031 -2.72,-2.93 -6.17,-4.379 -10.44,-4.379 -4.14,0 -7.53,1.449 -10.18,4.52 -2.71,2.992 -3.98,7.3 -3.98,12.89 v 82.809 c 0,5.48 1.19,9.543 3.58,12.191 2.4,2.719 5.62,4.039 9.73,4.039 2.51,0 4.82,-0.578 6.81,-1.699 2,-1.301 3.7,-3.09 4.87,-5.43 1.27,-2.359 1.88,-5.289 1.88,-8.691" /><path
         id="path38"
         style="fill:#ffffff;fill-opacity:1;fill-rule:nonzero;stroke:none"
         d="m 3266.55,627.699 h 51.92 c -0.7,9.871 -3.33,17.071 -7.93,21.973 -4.53,4.867 -10.61,7.308 -18.12,7.308 -7.11,0 -12.95,-2.441 -17.58,-7.339 -4.5,-4.981 -7.33,-12.243 -8.29,-21.942 z m 56,-16.258 h -56 c 0.03,-6.5 1.3,-12.222 3.91,-17.179 2.53,-5.012 5.96,-8.762 10.17,-11.199 4.26,-2.602 8.94,-3.774 14.02,-3.774 3.42,0 6.56,0.332 9.39,1.133 2.87,0.789 5.57,2.148 8.3,3.797 2.61,1.66 5.1,3.531 7.28,5.551 2.28,1.921 5.15,4.601 8.71,7.929 1.47,1.223 3.58,1.942 6.35,1.942 2.94,0 5.26,-0.789 7.07,-2.379 1.87,-1.621 2.75,-3.981 2.75,-6.852 0,-2.66 -0.99,-5.64 -3.03,-9.129 -2.01,-3.492 -5.1,-6.801 -9.2,-9.961 -4.07,-3.14 -9.18,-5.781 -15.44,-7.988 -6.15,-2.043 -13.31,-3.082 -21.33,-3.082 -18.41,0 -32.69,5.289 -42.96,15.719 -10.15,10.492 -15.29,24.672 -15.29,42.722 0,8.469 1.27,16.36 3.78,23.551 2.48,7.219 6.22,13.528 11.04,18.637 4.83,5.199 10.74,9.133 17.81,11.98 7.05,2.743 14.91,4 23.54,4 11.13,0 20.81,-2.269 28.78,-7.05 8,-4.657 14.02,-10.778 18.08,-18.27 3.92,-7.437 5.9,-15.129 5.9,-22.898 0,-7.192 -2.1,-11.911 -6.21,-14 -4.07,-2.102 -9.86,-3.2 -17.42,-3.2" /><path
         id="path40"
         style="fill:#ffffff;fill-opacity:1;fill-rule:nonzero;stroke:none"
         d="m 3392.52,618.691 c 0,-7.73 1.2,-14.371 3.6,-19.8 2.42,-5.489 5.75,-9.539 9.92,-12.352 4.21,-2.777 8.78,-4.199 13.74,-4.199 5.05,0 9.63,1.422 13.82,4.019 4.1,2.59 7.44,6.551 9.93,12 2.51,5.52 3.77,12.231 3.77,20.332 0,7.668 -1.26,14.188 -3.77,19.649 -2.49,5.512 -5.83,9.769 -10.08,12.66 -4.2,2.941 -8.87,4.34 -13.89,4.34 -5.26,0 -9.92,-1.488 -14.09,-4.399 -4.11,-3.031 -7.3,-7.363 -9.53,-12.921 -2.31,-5.52 -3.42,-11.981 -3.42,-19.329 z m 56.36,-42.07 v 2.899 c -3.9,-4.481 -7.65,-8.04 -11.41,-10.778 -3.77,-2.82 -7.86,-4.883 -12.17,-6.32 -4.37,-1.422 -9.17,-2.172 -14.32,-2.172 -6.87,0 -13.23,1.449 -19.1,4.379 -5.84,2.84 -10.86,7.019 -15.14,12.453 -4.28,5.258 -7.48,11.617 -9.7,18.949 -2.24,7.27 -3.32,15.16 -3.32,23.598 0,17.941 4.39,31.883 13.1,41.902 8.8,9.989 20.36,14.969 34.59,14.969 8.25,0 15.2,-1.441 20.84,-4.238 5.68,-2.864 11.21,-7.211 16.63,-12.992 v 42.21 c 0,5.872 1.14,10.262 3.51,13.34 2.33,3.078 5.69,4.512 10,4.512 4.37,0 7.67,-1.391 10.05,-4.18 2.3,-2.754 3.53,-6.843 3.53,-12.191 v -126.34 c 0,-5.461 -1.3,-9.57 -3.83,-12.301 -2.47,-2.691 -5.8,-4.07 -9.75,-4.07 -3.95,0 -7.14,1.379 -9.72,4.219 -2.52,2.812 -3.79,6.933 -3.79,12.152" /><path
         id="path42"
         style="fill:#ffffff;fill-opacity:1;fill-rule:nonzero;stroke:none"
         d="m 3586.28,617.871 c 0,-11.422 2.61,-20.172 7.83,-26.301 5.19,-6.121 11.98,-9.23 20.48,-9.23 7.18,0 13.41,3.16 18.6,9.41 5.31,6.332 7.87,15.27 7.87,26.941 0,7.618 -1.11,14.047 -3.26,19.559 -2.18,5.398 -5.3,9.66 -9.26,12.691 -3.97,2.911 -8.66,4.399 -13.95,4.399 -5.43,0 -10.29,-1.488 -14.57,-4.399 -4.25,-3.031 -7.67,-7.363 -10.13,-13.011 -2.4,-5.668 -3.61,-12.34 -3.61,-20.059 z m -1.37,85.09 V 659.27 c 5.4,5.511 10.86,9.812 16.43,12.75 5.69,3.039 12.55,4.48 20.81,4.48 9.51,0 17.88,-2.27 25.02,-6.73 7.18,-4.5 12.77,-11.071 16.65,-19.731 4.04,-8.5 5.98,-18.629 5.98,-30.41 0,-8.668 -1.11,-16.617 -3.26,-23.82 -2.25,-7.239 -5.45,-13.579 -9.66,-18.84 -4.17,-5.321 -9.28,-9.5 -15.28,-12.34 -5.98,-2.93 -12.55,-4.379 -19.73,-4.379 -4.5,0 -8.57,0.539 -12.48,1.563 -3.83,0.976 -7.17,2.468 -9.95,4.187 -2.7,1.73 -4.99,3.461 -6.96,5.242 -1.88,1.867 -4.45,4.61 -7.57,8.278 v -2.899 c 0,-5.379 -1.32,-9.48 -3.92,-12.301 -2.54,-2.691 -5.8,-4.07 -9.9,-4.07 -3.96,0 -7.25,1.379 -9.68,4.07 -2.42,2.821 -3.6,6.922 -3.6,12.301 V 701.75 c 0,5.762 1.15,10.141 3.52,13.109 2.35,3.039 5.58,4.473 9.76,4.473 4.45,0 7.87,-1.391 10.26,-4.293 2.32,-2.797 3.56,-6.879 3.56,-12.078" /><path
         id="path44"
         style="fill:#ffffff;fill-opacity:1;fill-rule:nonzero;stroke:none"
         d="m 3716.42,556.699 2.6,6.422 -35.27,88.738 c -2.15,5.121 -3.23,8.731 -3.23,11.133 0,2.379 0.66,4.719 1.89,6.817 1.25,2.101 2.94,3.73 5.18,5.011 2.23,1.25 4.48,1.879 6.9,1.879 4.14,0 7.19,-1.32 9.33,-3.84 2.11,-2.718 3.95,-6.457 5.56,-11.328 l 24.28,-70.519 22.93,65.597 c 1.86,5.321 3.54,9.469 4.93,12.473 1.46,2.938 3.1,5 4.72,6.09 1.64,1 3.94,1.527 6.98,1.527 2.12,0 4.25,-0.578 6.21,-1.699 2.03,-1.191 3.58,-2.738 4.61,-4.699 1.17,-1.969 1.65,-4 1.65,-6.172 -0.27,-1.289 -0.76,-3.109 -1.33,-5.629 -0.63,-2.461 -1.46,-5 -2.32,-7.5 l -37.4,-97.75 c -3.27,-8.641 -6.35,-15.398 -9.49,-20.25 -3,-4.949 -7.07,-8.621 -12.17,-11.309 -5.11,-2.55 -11.94,-3.921 -20.54,-3.921 -8.38,0 -14.67,0.921 -18.85,2.679 -4.22,1.871 -6.32,5.141 -6.32,9.992 0,3.301 0.98,5.809 2.98,7.622 2,1.816 4.96,2.687 8.88,2.687 1.52,0 3.03,-0.219 4.51,-0.621 1.82,-0.438 3.35,-0.578 4.75,-0.578 3.24,0 5.87,0.441 7.74,1.398 1.92,0.973 3.57,2.692 5.06,5.121 1.51,2.391 3.3,5.961 5.23,10.629" /><path
         id="path46"
         style="fill:#ffffff;fill-opacity:1;fill-rule:nonzero;stroke:none"
         d="m 4246.62,674.23 h 6.82 v 8.579 c 0,8.953 1.13,16.113 3.51,21.3 2.17,5.34 6.06,9.141 11.51,11.563 5.41,2.476 12.79,3.66 22.34,3.66 16.62,0 25.04,-4.102 25.04,-12.301 0,-2.64 -0.94,-4.89 -2.7,-6.84 -1.71,-1.89 -3.73,-2.832 -6.13,-2.832 -1.17,0 -3.12,0.211 -5.84,0.704 -2.65,0.378 -4.98,0.566 -6.87,0.566 -5.22,0 -8.52,-1.508 -10,-4.527 -1.45,-3.11 -2.19,-7.461 -2.19,-13.012 v -6.86 h 7.05 c 10.92,0 16.37,-3.32 16.37,-9.949 0,-4.629 -1.39,-7.57 -4.36,-8.883 -2.89,-1.218 -6.87,-1.898 -12.01,-1.898 h -7.05 v -75.84 c 0,-5.621 -1.37,-9.93 -3.98,-12.941 -2.76,-3.02 -6.2,-4.469 -10.51,-4.469 -4.05,0 -7.44,1.449 -10.16,4.469 -2.66,3.011 -4.02,7.32 -4.02,12.941 v 75.84 h -7.89 c -4.26,0 -7.48,0.941 -9.81,2.969 -2.36,1.871 -3.47,4.363 -3.47,7.472 0,6.868 4.8,10.289 14.35,10.289" /><path
         id="path48"
         style="fill:#ffffff;fill-opacity:1;fill-rule:nonzero;stroke:none"
         d="M 4348.98,601.672 V 577.66 c 0,-5.789 -1.32,-10.191 -4.02,-13.031 -2.79,-2.93 -6.29,-4.379 -10.47,-4.379 -4.06,0 -7.52,1.449 -10.11,4.441 -2.76,2.899 -4.07,7.278 -4.07,12.969 v 79.762 c 0,12.879 4.61,19.277 13.95,19.277 4.72,0 8.22,-1.469 10.27,-4.5 2.15,-2.957 3.28,-7.457 3.52,-13.289 3.43,5.832 6.93,10.332 10.54,13.289 3.6,3.031 8.38,4.5 14.44,4.5 5.97,0 11.81,-1.469 17.5,-4.5 5.68,-2.957 8.47,-6.988 8.47,-11.879 0,-3.609 -1.15,-6.379 -3.55,-8.781 -2.42,-2.18 -5,-3.309 -7.87,-3.309 -1.04,0 -3.54,0.622 -7.58,1.809 -4.02,1.41 -7.52,2.031 -10.7,2.031 -4.14,0 -7.6,-1.07 -10.26,-3.34 -2.65,-2.179 -4.65,-5.449 -6.23,-9.769 -1.44,-4.332 -2.48,-9.551 -3.04,-15.52 -0.55,-5.941 -0.79,-13.25 -0.79,-21.769" /><path
         id="path50"
         style="fill:#ffffff;fill-opacity:1;fill-rule:nonzero;stroke:none"
         d="m 4433.26,627.699 h 51.95 c -0.76,9.871 -3.26,17.071 -7.83,21.973 -4.67,4.867 -10.7,7.308 -18.18,7.308 -7.15,0 -12.97,-2.441 -17.62,-7.339 -4.55,-4.981 -7.3,-12.243 -8.32,-21.942 z m 56.04,-16.258 h -56.04 c 0.14,-6.5 1.37,-12.222 3.95,-17.179 2.52,-5.012 5.9,-8.762 10.19,-11.199 4.2,-2.602 8.87,-3.774 13.95,-3.774 3.45,0 6.64,0.332 9.43,1.133 2.89,0.789 5.57,2.148 8.24,3.797 2.72,1.66 5.12,3.531 7.35,5.551 2.26,1.921 5.21,4.601 8.79,7.929 1.42,1.223 3.57,1.942 6.27,1.942 2.95,0 5.29,-0.789 7.07,-2.379 1.77,-1.621 2.77,-3.981 2.77,-6.852 0,-2.66 -1,-5.64 -3.05,-9.129 -2.09,-3.492 -5.15,-6.801 -9.1,-9.961 -4.12,-3.14 -9.32,-5.781 -15.53,-7.988 -6.21,-2.043 -13.34,-3.082 -21.32,-3.082 -18.5,0 -32.78,5.289 -42.95,15.719 -10.26,10.492 -15.34,24.672 -15.34,42.722 0,8.469 1.25,16.36 3.83,23.551 2.44,7.219 6.14,13.528 10.98,18.637 4.8,5.199 10.76,9.133 17.87,11.98 6.99,2.743 14.86,4 23.54,4 11.17,0 20.68,-2.269 28.71,-7.05 8.06,-4.657 14.08,-10.778 18.08,-18.27 3.95,-7.437 6.02,-15.129 6.02,-22.898 0,-7.192 -2.07,-11.911 -6.29,-14 -4.16,-2.102 -9.84,-3.2 -17.42,-3.2" /><path
         id="path52"
         style="fill:#ffffff;fill-opacity:1;fill-rule:nonzero;stroke:none"
         d="m 4560.98,627.699 h 51.95 c -0.7,9.871 -3.34,17.071 -7.91,21.973 -4.57,4.867 -10.57,7.308 -18.07,7.308 -7.16,0 -12.99,-2.441 -17.59,-7.339 -4.54,-4.981 -7.41,-12.243 -8.38,-21.942 z m 56.09,-16.258 h -56.09 c 0.11,-6.5 1.42,-12.222 3.96,-17.179 2.54,-5.012 5.98,-8.762 10.18,-11.199 4.26,-2.602 8.92,-3.774 14,-3.774 3.44,0 6.49,0.332 9.36,1.133 2.85,0.789 5.7,2.148 8.22,3.797 2.66,1.66 5.12,3.531 7.38,5.551 2.25,1.921 5.26,4.601 8.75,7.929 1.49,1.223 3.54,1.942 6.29,1.942 2.95,0 5.37,-0.789 7.15,-2.379 1.8,-1.621 2.68,-3.981 2.68,-6.852 0,-2.66 -0.98,-5.64 -2.95,-9.129 -2.05,-3.492 -5.14,-6.801 -9.26,-9.961 -4.06,-3.14 -9.24,-5.781 -15.39,-7.988 -6.21,-2.043 -13.36,-3.082 -21.37,-3.082 -18.36,0 -32.71,5.289 -42.93,15.719 -10.21,10.492 -15.31,24.672 -15.31,42.722 0,8.469 1.27,16.36 3.73,23.551 2.54,7.219 6.21,13.528 11.05,18.637 4.83,5.199 10.75,9.133 17.87,11.98 7.09,2.743 14.89,4 23.48,4 11.15,0 20.8,-2.269 28.85,-7.05 7.95,-4.657 13.98,-10.778 18.01,-18.27 3.98,-7.437 5.91,-15.129 5.91,-22.898 0,-7.192 -2.01,-11.911 -6.15,-14 -4.16,-2.102 -9.9,-3.2 -17.42,-3.2" /><path
         id="path54"
         style="fill:#ffffff;fill-opacity:1;fill-rule:nonzero;stroke:none"
         d="m 4744.59,618.988 c 0,7.594 -1.13,14.102 -3.46,19.461 -2.34,5.481 -5.52,9.66 -9.57,12.551 -4.08,2.941 -8.63,4.34 -13.65,4.34 -7.83,0 -14.51,-3.121 -20,-9.43 -5.37,-6.18 -8.16,-15.379 -8.16,-27.43 0,-11.351 2.73,-20.23 8.16,-26.589 5.33,-6.391 12.01,-9.551 20,-9.551 4.84,0 9.16,1.422 13.2,4.199 4.1,2.813 7.35,6.863 9.79,12.383 2.42,5.629 3.69,12.269 3.69,20.066 z m -56.17,41.602 v -3.309 c 5.47,6.59 11.03,11.481 16.81,14.551 5.81,3.168 12.39,4.668 19.77,4.668 8.75,0 16.88,-2.27 24.32,-6.77 7.4,-4.578 13.24,-11.23 17.59,-19.941 4.28,-8.68 6.43,-19.07 6.43,-31.098 0,-8.769 -1.27,-16.839 -3.77,-24.261 -2.44,-7.399 -5.86,-13.59 -10.21,-18.578 -4.32,-5 -9.4,-8.872 -15.32,-11.571 -5.9,-2.679 -12.28,-4.031 -19.04,-4.031 -8.24,0 -15.12,1.66 -20.64,4.941 -5.61,3.289 -10.9,8.098 -15.94,14.43 v -42.98 c 0,-12.551 -4.67,-18.871 -13.65,-18.871 -5.49,0 -9.03,1.628 -10.82,4.839 -1.76,3.282 -2.58,8.063 -2.58,14.262 v 123.598 c 0,5.48 1.19,9.543 3.53,12.191 2.37,2.719 5.65,4.039 9.87,4.039 3.98,0 7.26,-1.32 9.82,-4.14 2.58,-2.75 3.83,-6.719 3.83,-11.969" /><path
         id="path56"
         style="fill:#ffffff;fill-opacity:1;fill-rule:nonzero;stroke:none"
         d="M 4825,660.469 V 577.66 c 0,-5.691 -1.39,-10.07 -4.14,-12.969 -2.7,-2.992 -6.07,-4.441 -10.37,-4.441 -4.22,0 -7.6,1.449 -10.22,4.52 -2.59,2.992 -3.94,7.3 -3.94,12.89 v 81.949 c 0,5.661 1.35,9.961 3.94,12.719 2.62,2.961 6,4.371 10.22,4.371 4.3,0 7.67,-1.41 10.37,-4.371 2.75,-2.758 4.14,-6.707 4.14,-11.859 z M 4810.92,690 c -4.1,0 -7.54,1.332 -10.33,3.66 -2.78,2.5 -4.26,5.949 -4.26,10.43 0,4.07 1.48,7.469 4.41,10.051 2.81,2.601 6.23,3.949 10.18,3.949 3.61,0 6.91,-1.219 9.78,-3.57 2.85,-2.43 4.3,-5.911 4.3,-10.43 0,-4.399 -1.39,-7.84 -4.22,-10.36 -2.79,-2.398 -6.15,-3.73 -9.86,-3.73" /><path
         id="path58"
         style="fill:#ffffff;fill-opacity:1;fill-rule:nonzero;stroke:none"
         d="m 4925.96,573.352 -25.33,41.589 -15.55,-14.73 v -22.75 c 0,-5.492 -1.35,-9.731 -4.24,-12.742 -2.99,-3.02 -6.37,-4.469 -10.04,-4.469 -4.47,0 -7.85,1.449 -10.37,4.441 -2.64,2.899 -3.81,7.278 -3.81,12.969 v 122.129 c 0,6.383 1.15,11.242 3.58,14.531 2.53,3.352 6.03,5.012 10.6,5.012 4.4,0 7.87,-1.434 10.47,-4.512 2.58,-3.078 3.81,-7.468 3.81,-13.34 v -69.468 l 32.28,33.828 c 4.03,4.172 7.02,7.082 9.09,8.551 2.1,1.589 4.68,2.308 7.67,2.308 3.61,0 6.54,-1.07 8.99,-3.437 2.32,-2.25 3.53,-5.082 3.53,-8.52 0,-4.211 -3.91,-9.781 -11.64,-16.762 l -15.27,-13.949 29.41,-46.211 c 2.23,-3.441 3.77,-6.007 4.71,-7.789 0.86,-1.75 1.38,-3.511 1.38,-5.062 0,-4.578 -1.21,-8.129 -3.67,-10.828 -2.54,-2.539 -5.88,-3.891 -9.88,-3.891 -3.52,0 -6.13,0.98 -8.09,2.871 -1.87,1.84 -4.41,5.309 -7.63,10.231" /><path
         id="path60"
         style="fill:#ffffff;fill-opacity:1;fill-rule:nonzero;stroke:none"
         d="m 4996.8,560.25 c -4.32,0 -8.09,1.379 -11.19,4.219 -3.19,2.781 -4.85,6.691 -4.85,11.73 0,4.262 1.58,7.961 4.61,11.02 3.03,3.062 6.8,4.652 11.13,4.652 4.38,0 8.17,-1.59 11.29,-4.59 3.11,-3.062 4.69,-6.711 4.69,-11.082 0,-4.957 -1.58,-8.918 -4.69,-11.73 -3.12,-2.84 -6.75,-4.219 -10.99,-4.219" /><path
         id="path62"
         style="fill:#ffffff;fill-opacity:1;fill-rule:nonzero;stroke:none"
         d="m 5147.87,595.719 c 0,-3.547 -1.05,-7.34 -3.24,-11.387 -2.11,-4.16 -5.37,-7.98 -9.71,-11.652 -4.37,-3.66 -9.94,-6.641 -16.54,-8.821 -6.64,-2.257 -14.22,-3.39 -22.48,-3.39 -17.7,0 -31.52,5.152 -41.45,15.492 -9.92,10.301 -14.92,24.109 -14.92,41.48 0,11.77 2.29,22.18 6.84,31.149 4.49,9.051 11.13,16.019 19.76,20.93 8.64,4.921 18.85,7.339 30.82,7.339 7.39,0 14.2,-1.039 20.39,-3.238 6.25,-2.101 11.47,-4.859 15.8,-8.351 4.3,-3.391 7.58,-7.051 9.85,-10.918 2.28,-3.954 3.4,-7.52 3.4,-10.911 0,-3.492 -1.25,-6.371 -3.87,-8.691 -2.54,-2.391 -5.63,-3.551 -9.26,-3.551 -2.38,0 -4.41,0.641 -5.94,1.801 -1.62,1.23 -3.3,3.191 -5.29,5.961 -3.44,5.309 -7.15,9.328 -10.98,11.98 -3.8,2.61 -8.67,3.938 -14.51,3.938 -8.41,0 -15.23,-3.34 -20.49,-9.899 -5.13,-6.64 -7.77,-15.628 -7.77,-27.109 0,-5.422 0.67,-10.351 2.07,-14.859 1.23,-4.481 3.22,-8.321 5.7,-11.61 2.49,-3.093 5.61,-5.57 9.11,-7.183 3.57,-1.649 7.57,-2.449 11.79,-2.449 5.71,0 10.67,1.371 14.79,3.921 4.04,2.809 7.67,6.75 10.82,12.25 1.78,3.2 3.65,5.731 5.66,7.45 2.05,1.91 4.51,2.757 7.42,2.757 3.58,0 6.39,-1.226 8.75,-3.918 2.27,-2.718 3.48,-5.511 3.48,-8.511" /><path
         id="path64"
         style="fill:#ffffff;fill-opacity:1;fill-rule:nonzero;stroke:none"
         d="m 5251.39,618.48 c 0,11.692 -2.66,20.762 -7.78,27.301 -5.09,6.481 -11.97,9.758 -20.74,9.758 -5.55,0 -10.45,-1.41 -14.78,-4.32 -4.24,-2.93 -7.54,-7.258 -9.89,-12.879 -2.28,-5.68 -3.43,-12.301 -3.43,-19.86 0,-7.48 1.15,-14.031 3.43,-19.589 2.25,-5.641 5.55,-9.821 9.77,-12.84 4.22,-2.988 9.22,-4.391 14.9,-4.391 8.77,0 15.65,3.149 20.74,9.672 5.12,6.609 7.78,15.688 7.78,27.148 z m 28.71,0 c 0,-8.46 -1.23,-16.351 -3.97,-23.539 -2.65,-7.269 -6.52,-13.472 -11.58,-18.589 -5.02,-5.192 -10.98,-9.211 -18.03,-12.032 -7.01,-2.691 -14.88,-4.07 -23.65,-4.07 -8.55,0 -16.42,1.379 -23.36,4.219 -6.87,2.781 -12.97,6.773 -18.06,11.933 -4.95,5.309 -8.91,11.418 -11.49,18.539 -2.56,7.059 -3.92,14.981 -3.92,23.539 0,8.68 1.36,16.571 4.08,23.891 2.56,7.09 6.38,13.32 11.29,18.41 5.02,5.141 11.05,9.028 18.1,11.778 7.07,2.82 14.83,4.14 23.36,4.14 8.77,0 16.58,-1.41 23.65,-4.199 7.07,-2.73 13.11,-6.738 18.15,-11.969 5.1,-5.14 8.85,-11.269 11.46,-18.441 2.74,-7.16 3.97,-15.031 3.97,-23.61" /><path
         id="path66"
         style="fill:#ffffff;fill-opacity:1;fill-rule:nonzero;stroke:none"
         d="m 5398.01,616.441 v -38.132 c 0,-6.039 -1.37,-10.547 -4.06,-13.539 -2.8,-3.071 -6.39,-4.52 -10.86,-4.52 -4.34,0 -7.84,1.449 -10.57,4.52 -2.7,2.992 -4.06,7.5 -4.06,13.539 v 45.621 c 0,7.269 -0.24,12.742 -0.69,16.832 -0.47,3.957 -1.81,7.277 -4.04,9.769 -2.13,2.598 -5.57,3.821 -10.27,3.821 -9.3,0 -15.55,-3.18 -18.48,-9.633 -2.97,-6.438 -4.47,-15.68 -4.47,-27.66 v -38.75 c 0,-5.981 -1.33,-10.43 -4.06,-13.489 -2.68,-3.007 -6.25,-4.57 -10.65,-4.57 -4.3,0 -7.83,1.563 -10.68,4.57 -2.76,3.059 -4.1,7.508 -4.1,13.489 v 82.011 c 0,5.301 1.17,9.45 3.69,12.18 2.52,2.789 5.8,4.199 9.78,4.199 4.01,0 7.27,-1.32 9.83,-3.84 2.71,-2.718 3.98,-6.379 3.98,-10.929 v -2.66 c 4.96,5.882 10.29,10.25 15.98,13.019 5.6,2.77 11.97,4.211 18.83,4.211 7.26,0 13.43,-1.441 18.59,-4.301 5.21,-2.847 9.45,-7.207 12.81,-12.929 4.81,5.781 10.06,10.128 15.59,12.992 5.47,2.797 11.6,4.238 18.32,4.238 7.83,0 14.61,-1.5 20.27,-4.59 5.69,-3.148 9.86,-7.539 12.7,-13.211 2.5,-5.199 3.67,-13.328 3.67,-24.469 v -55.921 c 0,-6.039 -1.41,-10.547 -4.14,-13.539 -2.68,-3.071 -6.23,-4.52 -10.74,-4.52 -4.3,0 -7.91,1.563 -10.63,4.57 -2.85,3.059 -4.18,7.508 -4.18,13.489 v 48.203 c 0,6.097 -0.23,11.058 -0.8,14.789 -0.61,3.679 -1.93,6.808 -4.2,9.301 -2.38,2.527 -5.84,3.75 -10.53,3.75 -3.82,0 -7.32,-1.141 -10.74,-3.352 -3.36,-2.148 -6.11,-5.219 -7.99,-9.07 -2.09,-4.758 -3.1,-13.289 -3.1,-25.489" /><path
         id="path68"
         style="fill:#ffffff;fill-opacity:1;fill-rule:nonzero;stroke:none"
         d="m 4020.8,750.59 c -0.53,1.789 -1.11,3.68 -1.72,5.469 9.53,0.882 16.04,12.461 11.37,20.992 -4.32,9.621 -19.14,10.801 -24.86,1.988 -6.11,-7.84 -1.33,-20.168 8.02,-22.68 0.63,-1.918 1.12,-3.98 1.72,-5.91 -14.41,-1.027 -29.09,-4.207 -41.27,-12.41 1.29,-3.41 2.52,-7.07 3.76,-10.547 24.47,10.699 51.77,8.41 77.53,5.817 0.92,3.39 1.76,6.812 2.6,10.211 -11.66,5.21 -24.43,7.14 -37.15,7.07" /><path
         id="path70"
         style="fill:#ffffff;fill-opacity:1;fill-rule:nonzero;stroke:none"
         d="m 4166.07,711.18 c -3.84,-1.938 -4.57,-6.649 -4.39,-10.551 -4.3,-4.141 -2.25,-10.5 -2.7,-15.68 -0.95,-2.937 -4.47,-3.308 -6.91,-4.449 -3.4,5.219 -6.97,10.141 -11.56,14.359 l 0.1,0.25 c -4.97,4.582 -10.3,8.77 -15.9,12.442 -4.46,-4.813 -9.2,-9.602 -13.56,-14.582 8.58,-9.438 16.53,-19.707 23.54,-30.317 4.88,-8.14 8.71,-16.8 12.15,-25.664 7.22,3.774 14.41,7.664 21.68,11.442 -3.85,8.851 -8.21,17.519 -12.86,25.961 3.19,1.73 7.54,3.39 7.99,7.621 0.37,4.629 -0.6,9.648 2.09,13.707 5.65,-3.617 14.2,0.441 14.24,7.242 0.76,7.148 -8.1,12.191 -13.91,8.219" /><path
         id="path72"
         style="fill:#ffffff;fill-opacity:1;fill-rule:nonzero;stroke:none"
         d="m 4109.16,652.449 c -1.76,-11.859 -13.03,-21.801 -25.1,-21.039 -6.99,-0.609 -13.71,2.68 -18.45,7.641 -3.42,4.23 -6.2,9.058 -6.68,14.691 -1.63,11.93 6.79,24.321 18.53,27.168 5.14,1.442 10.59,0.641 15.7,-0.59 10.98,-3.859 18.23,-16.379 16,-27.871 z m -106.11,-24.988 c -4.74,-6.852 -11.58,-12.172 -19.4,-15.172 -14.75,-5.476 -32.62,-1.699 -43.25,10 -7.38,8.141 -11.77,19.07 -10.99,30.16 0.61,13.801 9.14,26.68 21.27,33.133 9.2,4.957 20.34,5.848 30.47,3.02 4.2,-1.02 8.05,-3.02 11.67,-5.411 7.52,-5.269 13.04,-13.062 15.58,-21.902 3.46,-11.297 1.21,-24 -5.35,-33.828 z m 123.73,31.039 c -9.44,15.699 -19.65,31.32 -33.62,43.371 -15.99,14.16 -36.89,23.719 -58.59,23.598 -27.36,0.242 -55.08,-4.078 -80.28,-15.059 -23.76,-10.43 -44.45,-29.14 -54.89,-53.129 -10.09,-21.582 -9.91,-46.519 -5.38,-69.531 25.18,-6.281 50.79,-11.859 76.73,-13.051 25.68,-0.789 51.38,-1.41 76.89,2.121 34.96,4.649 69.27,15.649 99.82,33.559 0,0 -4.26,23.012 -20.68,48.121" /><path
         id="path74"
         style="fill:#ffffff;fill-opacity:1;fill-rule:nonzero;stroke:none"
         d="m 3899.71,693.539 c -10.22,-6.168 -18.63,-14.898 -25.66,-24.457 -2.06,3.84 -2.64,8.34 -5.32,11.75 -1.5,2.008 -4.27,1.18 -6.35,1.18 -2.75,-0.231 -5.4,0.5 -7.95,1.238 3.01,4.199 2.2,10.68 -2.36,13.469 -4.91,3.472 -12.49,0.461 -13.83,-5.387 -2.03,-6.383 4.76,-12.793 11.02,-11.113 3.35,-4.93 9.37,-4.149 14.48,-4.278 2.27,-4.031 4.06,-8.382 7.02,-12 -5.5,-10.812 -8.63,-22.921 -8.89,-35.031 7.08,-2.961 14.16,-5.961 21.18,-8.941 0.33,7.73 1.27,15.32 2.38,22.761 2.36,16.54 11.86,30.782 23.14,42.52 -2.77,2.961 -5.91,5.512 -8.86,8.289" /><path
         id="path76"
         style="fill:#ffffff;fill-opacity:1;fill-rule:nonzero;stroke:none"
         d="m 4064.38,569.652 c -26,-5.683 -52.74,-7.351 -79.27,-6.183 -17.93,0.851 -35.9,2.57 -53.39,6.461 -12.43,2.519 -24.62,6.129 -36.91,9.652 2.01,-15.613 8.32,-30.551 17.34,-43.434 10.65,-14.957 24.89,-28.648 42.59,-34.218 13.79,-3.77 30.25,-8.438 58.68,-7.961 23.46,0.371 46.5,3.351 67.07,12.179 13.28,5.692 25.68,13.442 36.42,23.211 9.22,8.704 16.49,19.571 21.45,31.18 4.84,11.051 9.22,30.793 8.77,40.973 -25.43,-14.481 -53.79,-27.032 -82.75,-31.86" /><g
         transform="scale(10)"
         id="g78"><text
           id="text82"
           style="font-variant:normal;font-weight:bold;font-size:91.36889648px;font-family:Asap;-inkscape-font-specification:Asap-Bold;writing-mode:lr-tb;fill:#ec1c26;fill-opacity:1;fill-rule:nonzero;stroke:none"
           transform="matrix(1,0,0,-1,111.117,330.767)"><tspan
             id="tspan80"
             y="0"
             x="0">E</tspan></text>
</g><g
         transform="scale(10)"
         id="g84"><text
           id="text88"
           style="font-variant:normal;font-weight:bold;font-size:91.36889648px;font-family:Asap;-inkscape-font-specification:Asap-Bold;writing-mode:lr-tb;fill:#80cc29;fill-opacity:1;fill-rule:nonzero;stroke:none"
           transform="matrix(1,0,0,-1,634.243,330.767)"><tspan
             id="tspan86"
             y="0"
             x="0">F</tspan></text>
</g><path
         id="path90"
         style="fill:#ffffff;fill-opacity:1;fill-rule:nonzero;stroke:none"
         d="m 4086.66,6143.34 c 0,-19.58 -15.88,-35.46 -35.47,-35.46 h -208.81 c -19.59,0 -35.47,15.88 -35.47,35.46 v 851.2 c 0,19.58 15.88,35.46 35.47,35.46 h 208.81 c 19.59,0 35.47,-15.88 35.47,-35.46 v -851.2" /><path
         id="path92"
         style="fill:#ffffff;fill-opacity:1;fill-rule:nonzero;stroke:none"
         d="m 2504.49,5816.59 c 7.99,-9.52 8.39,-22.34 0.89,-28.64 l -79.98,-67.11 c -7.5,-6.29 -20.07,-3.68 -28.06,5.84 l -347.21,413.8 c -7.99,9.52 -8.38,22.35 -0.89,28.64 l 79.98,67.11 c 7.5,6.3 20.07,3.68 28.05,-5.84 l 347.22,-413.8" /><path
         id="path94"
         style="fill:#ffffff;fill-opacity:1;fill-rule:nonzero;stroke:none"
         d="m 5404.38,5816.59 c -7.99,-9.52 -8.39,-22.34 -0.89,-28.64 l 79.98,-67.11 c 7.5,-6.29 20.07,-3.68 28.05,5.84 l 347.22,413.8 c 7.99,9.52 8.38,22.35 0.88,28.64 l -79.98,67.11 c -7.5,6.3 -20.06,3.68 -28.05,-5.84 l -347.21,-413.8" /><path
         id="path96"
         style="fill:#ffffff;fill-opacity:1;fill-rule:nonzero;stroke:none"
         d="m 6068.1,5006.15 c -11.26,-5.25 -17.06,-16.7 -12.92,-25.57 l 44.14,-94.63 c 4.12,-8.87 16.63,-11.82 27.89,-6.56 l 489.56,228.29 c 11.26,5.25 17.04,16.7 12.9,25.58 l -44.12,94.63 c -4.13,8.87 -16.63,11.81 -27.89,6.55 L 6068.1,5006.15" /><path
         id="path98"
         style="fill:#ffffff;fill-opacity:1;fill-rule:nonzero;stroke:none"
         d="m 1809.94,5006.15 c 11.27,-5.25 17.05,-16.7 12.92,-25.57 l -44.13,-94.63 c -4.14,-8.87 -16.64,-11.82 -27.9,-6.56 l -489.56,228.29 c -11.27,5.25 -17.04,16.7 -12.9,25.58 l 44.13,94.63 c 4.13,8.87 16.62,11.81 27.89,6.55 l 489.55,-228.29" /><path
         id="path100"
         style="fill:none;stroke:#ec1c26;stroke-width:40;stroke-linecap:butt;stroke-linejoin:miter;stroke-miterlimit:10;stroke-dasharray:none;stroke-opacity:1"
         d="m 1153.28,4558.62 651.54,0.75 0.4,-338.92 -651.54,-0.76 z" /><path
         id="path102"
         style="fill:none;stroke:#ec1c26;stroke-width:40;stroke-linecap:butt;stroke-linejoin:miter;stroke-miterlimit:10;stroke-dasharray:none;stroke-opacity:1"
         d="m 1025.04,4508.47 73.67,0.09 0.28,-238.93 -73.67,-0.09 z" /><path
         id="path104"
         style="fill:none;stroke:#80cc29;stroke-width:40;stroke-linecap:butt;stroke-linejoin:miter;stroke-miterlimit:10;stroke-dasharray:none;stroke-opacity:1"
         d="m 6846.73,4558.62 -651.55,0.75 -0.39,-338.92 651.54,-0.76 z" /><path
         id="path106"
         style="fill:none;stroke:#80cc29;stroke-width:40;stroke-linecap:butt;stroke-linejoin:miter;stroke-miterlimit:10;stroke-dasharray:none;stroke-opacity:1"
         d="m 6974.96,4508.47 -73.67,0.09 -0.27,-238.93 73.67,-0.09 z" /><path
         id="path108"
         style="fill:#80cc29;fill-opacity:1;fill-rule:nonzero;stroke:none"
         d="m 6434.26,4518.37 v -258.28 h 88.49 v 258.28 h -88.49" /><path
         id="path110"
         style="fill:#80cc29;fill-opacity:1;fill-rule:nonzero;stroke:none"
         d="m 6328.03,4518.37 v -258.28 h 88.49 v 258.28 h -88.49" /><path
         id="path112"
         style="fill:#80cc29;fill-opacity:1;fill-rule:nonzero;stroke:none"
         d="m 6233.76,4518.37 v -258.28 h 76.53 v 258.28 h -76.53" /><path
         id="path114"
         style="fill:#80cc29;fill-opacity:1;fill-rule:nonzero;stroke:none"
         d="m 6540.49,4518.37 v -258.28 h 88.5 v 258.28 h -88.5" /><path
         id="path116"
         style="fill:#80cc29;fill-opacity:1;fill-rule:nonzero;stroke:none"
         d="m 6646.73,4518.37 v -258.28 h 88.49 v 258.28 h -88.49" /><path
         id="path118"
         style="fill:#80cc29;fill-opacity:1;fill-rule:nonzero;stroke:none"
         d="m 6800.31,4518.37 h -47.35 v -258.28 h 47.35 v 258.28" /><g
         id="g120"><g
           clip-path="url(#clipPath126)"
           id="g122"><path
             id="path138"
             style="fill:url(#radialGradient136);fill-opacity:1;fill-rule:nonzero;stroke:none"
             d="m 6540.49,4530.87 h -17.74 v -12.5 h 17.74 v 12.5" /></g></g><path
         id="path140"
         style="fill:#ffffff;fill-opacity:1;fill-rule:nonzero;stroke:none"
         d="m 4129.79,1785.9 c -102.19,-101.07 -266.97,-100.16 -368.04,2.04 -101.06,102.19 -100.15,266.95 2.05,368.02 102.19,101.06 266.96,100.15 368.03,-2.03 101.06,-102.2 100.14,-266.97 -2.04,-368.03" /><path
         id="path142"
         style="fill:#ffffff;fill-opacity:1;fill-rule:nonzero;stroke:none"
         d="m 4050.63,1865.95 c -57.98,-57.35 -151.48,-56.82 -208.82,1.16 -57.34,57.97 -56.82,151.46 1.16,208.8 57.98,57.34 151.47,56.82 208.81,-1.15 57.33,-57.98 56.82,-151.48 -1.15,-208.81" /><path
         id="path144"
         style="fill:#ffffff;fill-opacity:1;fill-rule:nonzero;stroke:none"
         d="m 3978.73,1882.88 c -23.06,-22.82 -57.06,-25.84 -75.92,-6.77 l -43.6,44.1 c -18.87,19.08 -15.46,53.04 7.6,75.84 L 5822.22,3929.9 c 23.04,22.81 247.05,169.15 265.92,150.07 v 0 C 6107,4060.89 5957.19,3839.51 5934.16,3816.72 L 3978.73,1882.88" /><path
         id="path146"
         style="fill:#ffffff;fill-opacity:1;fill-rule:nonzero;stroke:none"
         d="m 4598.5,3645.62 c -7.75,-9.68 -32.58,-25.96 -111.37,-25.96 -35.99,0 -61.98,8.62 -77.23,25.67 -22.6,25.22 -18.59,64.28 -18.59,64.28 l 0.35,371.13 c 0,23.84 -9.63,45.37 -27.14,60.64 -23.45,20.42 -56.9,25.9 -83.09,26.73 v 364.73 c 17.5,-8.72 37.91,-18.67 61.73,-30.01 90.53,-43.11 104.45,-89.36 105.8,-94.07 v -345.9 c 0,-145.96 55.28,-207.75 99.71,-257.49 24.77,-27.64 44.28,-49.43 51.73,-83.05 8.69,-39.16 8.13,-64.22 -1.9,-76.7 z m -928.08,816.14 c 0,36.94 29.91,66.86 66.84,66.86 h 336.86 c 36.91,0 66.84,-29.92 66.84,-66.86 v -100.3 c 0,-36.96 -29.93,-66.88 -66.84,-66.88 h -336.86 c -36.93,0 -66.84,29.92 -66.84,66.88 z M 4685.83,3741.4 c -12.45,55.82 -44.04,91.17 -71.92,122.3 -39.82,44.51 -77.43,86.59 -77.43,199.11 v 348.74 l -0.1,3.21 c -0.75,9.89 3.09,71.46 -155.58,167.07 -42.5,25.63 -76.81,37.39 -99.43,49.12 0,48.71 -39.49,88.2 -88.19,88.2 h -575.01 c -48.7,0 -88.17,-39.49 -88.17,-88.2 V 3507.92 h -3.21 c -48.7,0 -88.2,-39.49 -88.2,-88.2 v -57.45 h 934.14 v 57.45 c 0,48.71 -39.49,88.2 -88.15,88.2 h -3.21 v 572.54 c 9.37,-0.52 17.87,-1.76 22.71,-3.63 v -359.37 c -1.52,-16.36 -4.08,-79.78 39.71,-129.58 32.58,-37 80.78,-55.77 143.32,-55.77 90.47,0 147.58,18.66 179.71,58.75 36.48,45.52 29.34,104.36 19.01,150.54" /></g></g></svg>